<?xml version="1.0" encoding="utf-8"?>
<!-- Generator: Adobe Illustrator 22.0.0, SVG Export Plug-In . SVG Version: 6.00 Build 0)  -->
<svg fill="#000000" width="52" height="52" version="1.1" id="lni_lni-target" xmlns="http://www.w3.org/2000/svg" xmlns:xlink="http://www.w3.org/1999/xlink" x="0px"
	 y="0px" viewBox="0 0 64 64" style="enable-background:new 0 0 64 64;" xml:space="preserve">
<path d="M60,29.8h-5.9c-1-10.8-9.4-19.5-19.9-20.6V4c0-1.2-1-2.3-2.3-2.3c-1.2,0-2.3,1-2.3,2.3v5.2c-10.5,1.1-18.9,9.7-19.9,20.6H4
	c-1.2,0-2.3,1-2.3,2.3c0,1.2,1,2.3,2.3,2.3h5.9c1,10.8,9.4,19.5,19.9,20.6V60c0,1.2,1,2.3,2.3,2.3c1.2,0,2.3-1,2.3-2.3v-5.2
	c10.5-1.1,18.9-9.7,19.9-20.6H60c1.2,0,2.3-1,2.3-2.3C62.3,30.8,61.2,29.8,60,29.8z M49.6,29.8h-6.2c-0.9-4.8-4.5-8.6-9.2-9.5v-6.5
	C42.3,14.8,48.6,21.4,49.6,29.8z M32,39.5C32,39.5,32,39.5,32,39.5C32,39.5,32,39.5,32,39.5c-4,0-7.2-3.4-7.2-7.5c0,0,0,0,0,0
	s0,0,0,0c0-4.1,3.2-7.4,7.1-7.5c0,0,0,0,0,0s0,0,0,0c3.9,0,7.1,3.4,7.1,7.5c0,0,0,0,0,0s0,0,0,0C39.1,36.1,35.9,39.4,32,39.5z
	 M29.8,13.7v6.5c-4.6,0.9-8.3,4.7-9.2,9.5h-6.2C15.4,21.4,21.7,14.8,29.8,13.7z M14.4,34.3h6.2c0.9,4.8,4.5,8.6,9.2,9.5v6.5
	C21.7,49.2,15.4,42.6,14.4,34.3z M34.3,50.3v-6.5c4.6-0.9,8.3-4.7,9.2-9.5h6.2C48.6,42.6,42.3,49.2,34.3,50.3z"/>
</svg>
